<svg id="svg" version="1.1" viewBox="0 0 300 300" width="300" height="300" xmlns="http://www.w3.org/2000/svg"><svg xmlns="http://www.w3.org/2000/svg"><defs><clipPath id="clip-1"><rect x="0" y="0" transform="scale(0.23438,0.23438)" width="1280" height="1280" fill="none"/></clipPath></defs><g clip-path="url(#clip-1)" fill="none" fill-rule="nonzero" stroke="none" stroke-width="1" stroke-linecap="butt" stroke-linejoin="miter" stroke-miterlimit="10" stroke-dasharray="" stroke-dashoffset="0" font-family="none" font-weight="none" font-size="none" text-anchor="none" style="mix-blend-mode: normal"><path d="M140.23406,0h14.17969c1.95281,1.14248 7.85273,0.56674 10.40367,1.32023c6.02672,0.73165 12.00234,0.16416 17.93273,1.79581c0.82781,0.22777 1.61414,0.56245 2.42273,0.78026c12.31031,2.43434 31.12031,10.65258 41.79469,17.09571c1.85555,0.96129 11.58398,6.36096 12.10898,8.04213c12.12422,8.49891 29.38594,26.68781 37.04063,39.57891c2.43281,2.7307 5.58281,8.64609 7.14141,12.05297c7.64531,14.68336 13.77422,34.79484 15.69375,51.17672c0.61641,5.25914 0.00703,11.03836 1.04766,16.58648v3.87141l-0.06797,0.28828c-0.72891,3.20812 -0.63984,7.84945 -0.77812,11.19375c-0.38906,9.49781 -2.29219,18.25828 -4.92656,27.35859c-7.82578,27.34359 -23.29922,51.88219 -44.59688,70.73063c-2.38125,2.11641 -6.95625,6.24844 -9.50156,8.04609c-2.61562,2.72812 -14.35406,9.89297 -18.19617,11.78906c-1.48547,0.73125 -5.59453,1.82344 -7.26633,2.25c-1.04414,0.70547 -3.72023,2.87812 -4.66547,3.29062c-9.26484,4.05938 -19.71,7.59844 -29.59969,9.63281c-5.87367,1.20703 -12.12398,1.88437 -17.97258,2.64609l-0.02227,0.47344h-18.15961h-6.41109c-1.45195,-1.09453 -12.76523,-1.94297 -15.59883,-2.55703c-9.14555,-1.97812 -20.57039,-4.91484 -28.85109,-9.04687c-8.07586,-1.99219 -21.66633,-9.96797 -28.47047,-14.74687c-2.85117,-1.66641 -11.46633,-8.95312 -14.31867,-11.51719c-22.65469,-20.01563 -38.72655,-46.41469 -46.10555,-75.73008c-0.97622,-3.84867 -1.7209,-7.54969 -2.3616,-11.44969c-0.39074,-2.37867 -0.76524,-9.24281 -2.12949,-10.73531v-24.41531c1.37761,-1.59328 1.61971,-13.16977 2.21137,-16.22109c2.43551,-12.56086 5.95048,-24.22359 11.18661,-35.88703c1.27303,-2.8357 2.49884,-5.70234 4.03305,-8.40961c1.86192,-3.88992 4.92277,-8.89477 7.27303,-12.38273c9.45164,-14.33883 23.49141,-28.15125 37.14211,-38.47734c3.32391,-3.08883 9.24703,-6.68264 13.34953,-8.77123c13.04555,-7.65075 29.8943,-13.76662 44.65453,-16.71211c3.38625,-1.28741 7.3425,-1.13104 10.93359,-1.48353c2.17711,-0.21371 5.01188,-0.83009 7.10766,-0.73362c0.95016,-0.15044 1.55367,-0.17321 2.34258,-0.72334z" fill="#ffffff"/><path d="M0,139.80164c1.37761,-1.59328 1.61971,-13.16977 2.21137,-16.22109c2.43551,-12.56086 5.95048,-24.22359 11.18661,-35.88703c1.27303,-2.8357 2.49884,-5.70234 4.03305,-8.40961c2.24205,0.94828 4.60969,2.51555 6.72975,3.78938c3.06609,1.87898 6.19922,3.64711 9.39258,5.30039c14.97328,7.61344 27.11648,10.5218 43.69781,11.61703c3.3232,0.21961 7.27617,0.80602 10.53539,0.88805c-6.20437,18.40055 -3.62836,36.71414 4.92164,53.94375c3.28336,6.63117 7.2982,12.87445 11.96953,18.61312c8.26664,10.21781 17.37305,19.83328 26.29242,29.47992c3.63375,3.92977 7.52953,7.77094 10.93172,11.89687c0.83766,1.01602 1.76695,2.24109 2.20102,3.50062c1.28367,3.72375 0.90656,37.7557 0.4357,43.45102c-9.81375,-15.78984 -29.21531,-28.87758 -47.32477,-33.1193c-3.58547,-0.83742 -7.21711,-1.46367 -10.87594,-1.87594c-4.78078,-0.52734 -23.96203,-1.67063 -27.6532,0.58641c-1.4775,0.90328 -2.25961,2.31984 -2.62945,3.97781c-1.84594,8.28023 2.21648,25.4693 5.26711,33.38648c0.74086,1.92422 3.48164,7.08281 3.59297,8.92969c-2.85117,-1.66641 -11.46633,-8.95312 -14.31867,-11.51719c-22.65469,-20.01563 -38.72655,-46.41469 -46.10555,-75.73008c-0.97622,-3.84867 -1.7209,-7.54969 -2.3616,-11.44969c-0.39074,-2.37867 -0.76524,-9.24281 -2.12949,-10.73531z" fill="#9878a7"/><path d="M283.25859,80.66602c7.64531,14.68336 13.77422,34.79484 15.69375,51.17672c0.61641,5.25914 0.00703,11.03836 1.04766,16.58648v3.87141l-0.06797,0.28828c-0.72891,3.20812 -0.63984,7.84945 -0.77812,11.19375c-0.38906,9.49781 -2.29219,18.25828 -4.92656,27.35859c-7.82578,27.34359 -23.29922,51.88219 -44.59688,70.73063c-2.38125,2.11641 -6.95625,6.24844 -9.50156,8.04609c-0.05156,-0.63281 0.31875,-1.29609 0.55781,-1.88672c4.46016,-10.9875 6.99375,-22.61016 6.82266,-34.51875c-0.18281,-8.57227 -7.57266,-7.21664 -13.49367,-7.37695c-14.71523,-0.39867 -28.7482,1.17211 -42.22078,7.50117c-8.64305,4.05937 -16.60336,9.65859 -23.37914,16.45547c-3.40336,3.41484 -6.62578,7.42031 -9.78398,11.11875c0.47344,-13.91484 -0.47133,-28.56023 0.29648,-42.51281c0.03844,-0.69867 1.2607,-2.45016 1.75148,-3.00047c10.47703,-11.7525 22.02047,-22.79953 32.19867,-34.79977c5.12648,-5.96203 9.78773,-12.30891 13.94227,-18.98461c7.83211,-12.79313 13.8607,-27.84164 13.65258,-43.08352c-0.0825,-6.05016 -1.44164,-12.82945 -2.86969,-18.73945c20.14875,1.11727 38.07141,-4.23305 55.70344,-13.66734c2.51953,-1.34719 7.75313,-4.10742 9.95156,-5.75695z" fill="#9878a7"/><path d="M24.70406,66.90117c9.45164,-14.33883 23.49141,-28.15125 37.14211,-38.47734c4.32891,1.13648 7.32,7.3343 10.26,10.85859c15.94055,19.10742 35.70961,26.74453 60.28359,26.58281c-11.54883,13.33711 -26.65383,18.53695 -43.90359,19.94977c-19.47094,1.59492 -37.05305,-3.52336 -53.81719,-13.08c-2.01422,-1.1482 -8.34234,-4.55086 -9.96492,-5.83383z" fill="#9878a7"/><path d="M239.07656,29.03414c12.12422,8.49891 29.38594,26.68781 37.04063,39.57891c-1.43906,1.27242 -6.58125,3.88688 -8.50078,4.92633c-25.66875,13.89867 -58.56398,17.56266 -84.68109,2.77148c-4.50914,-2.55352 -7.71867,-5.45578 -10.99781,-9.42773c9.79172,-1.96852 18.46922,-2.01703 28.34672,-5.58328c14.45039,-5.21742 26.17852,-14.40938 34.86656,-27.09281c0.91172,-1.33102 2.83125,-4.26516 3.92578,-5.17289z" fill="#9878a7"/><path d="M70.30078,240.29063c5.25375,-0.19453 9.22477,-0.34453 14.52047,0.19687c14.26594,1.52812 27.65297,7.63359 38.15719,17.40703c11.39484,10.58906 20.06555,26.47969 21.26836,42.10547h-6.41109c-1.45195,-1.09453 -12.76523,-1.94297 -15.59883,-2.55703c-9.14555,-1.97812 -20.57039,-4.91484 -28.85109,-9.04687l-0.11977,-0.17578c-0.88992,-1.28672 -2.40164,-2.77969 -3.48539,-3.91641c-10.48875,-10.99688 -17.74008,-25.60313 -19.16508,-40.80469c-0.09844,-1.05 -0.18094,-2.13047 -0.31477,-3.20859z" fill="#9878a7"/><path d="M159.22125,299.39297c1.56984,-15.17109 9.11086,-29.90859 20.06531,-40.45313c10.62469,-10.26562 24.35086,-16.72266 39.03375,-18.36094c5.34937,-0.57656 9.52664,-0.44531 14.84156,-0.33984c-0.88336,11.76797 -4.67602,23.13047 -11.03719,33.07031c-2.27437,3.58594 -4.94484,6.75234 -7.50633,10.125c0.01617,0.17344 0.03211,0.34922 0.04805,0.52266c-1.04414,0.70547 -3.72023,2.87812 -4.66547,3.29062c-9.26484,4.05938 -19.71,7.59844 -29.59969,9.63281c-5.87367,1.20703 -12.12398,1.88437 -17.97258,2.64609c-0.64359,-0.33984 -2.39648,-0.17109 -3.20742,-0.13359z" fill="#9878a7"/><path d="M75.1957,19.6526c13.04555,-7.65075 29.8943,-13.76662 44.65453,-16.71211c0.29297,0.85034 5.62711,5.49492 6.735,6.60368c11.59289,11.60109 15.69797,25.16677 17.93883,40.9477c-13.79508,3.78094 -33.10641,0.94383 -45.44648,-6.26555c-11.1293,-6.5018 -17.21484,-13.91063 -23.88188,-24.57373z" fill="#9878a7"/><path d="M185.17289,3.8963c12.31031,2.43434 31.12031,10.65258 41.79469,17.09571c-0.63117,1.94695 -1.86844,3.5037 -3.03188,5.15557c-15.01969,21.32414 -39.705,29.57672 -65.06812,24.48703c1.88555,-16.60289 7.28906,-31.21193 19.62844,-42.92646c2.34703,-2.22827 3.23789,-3.7504 6.67688,-3.81185z" fill="#9878a7"/><path d="M140.23406,0h14.17969c1.95281,1.14248 7.85273,0.56674 10.40367,1.32023c-3.07734,3.97855 -5.71148,7.23749 -8.34516,11.61041c-1.6125,2.67717 -3.29789,6.66902 -4.94695,9.07814c-4.23867,-9.74719 -7.59164,-13.34023 -13.63383,-21.28544c0.95016,-0.15044 1.55367,-0.17321 2.34258,-0.72334z" fill="#9878a7"/><path d="M120.40641,91.2157c0.61734,0.69445 0.89063,13.02328 1.0193,14.8418c0.39844,5.63203 1.43414,10.91578 3.46008,16.19367c1.12242,2.92383 2.43984,5.69133 3.95719,8.42789c2.50406,4.51617 15.31945,25.28578 18.65297,28.09922c1.31297,1.10813 3.19289,1.74305 4.90852,1.56117c2.31023,-0.24469 4.12336,-2.03109 5.49234,-3.76453c3.26766,-4.13742 6.25781,-9.38227 9.14039,-13.85625c11.46937,-17.80008 17.32664,-29.94961 14.91305,-51.67594c5.69039,1.74984 11.71312,4.04484 17.27039,6.21609c2.73891,1.07016 4.42547,6.29133 5.34516,8.9775c4.87336,14.23102 0.5093,29.20875 -6.09094,42.12023c-7.04672,13.47727 -15.49664,22.60875 -25.61367,33.68859l-20.99063,22.71117c-11.16844,-12.4343 -22.66828,-24.57352 -33.50859,-37.2975c-3.11883,-3.66094 -6.18938,-7.35469 -8.86922,-11.35594c-2.94703,-4.35633 -5.37258,-9.04336 -7.22672,-13.96523c-5.22867,-13.91203 -6.45469,-31.64977 2.92641,-44.39273c1.19133,-1.61812 12.77578,-5.61234 15.21398,-6.52922z" fill="#9878a7"/><path d="M151.57266,65.29969c0.12937,0.04758 0.2775,0.09422 0.38016,0.1868c6.87047,6.36305 12.65789,14.56805 15.12633,23.685c3.10359,11.46234 1.58016,22.37906 -4.15734,32.66648c-3.58336,6.42516 -7.20164,12.72656 -10.79109,19.09406c-20.54555,-26.70469 -25.63805,-50.06133 -0.55805,-75.63234z" fill="#9878a7"/></g></svg></svg>